# xmcd CD database file
#
# Track frame offsets:
#	150
#	13578
#	27298
#	42610
#	61826
#	79168
#	91606
#	111450
#	127151
#	140773
#	156471
#	171720
#	184935
#	199854
#	216071
#	228826
#	243905
#	258249
#	276175
#	288390
#	303684
#
# Disc length: 4187 seconds
#
# Revision: 0
# Processed by: cddbd v1.5.2PL0 Copyright (c) Steve Scherf et al.
# Submitted via: CDex 1.51
#
DISCID=3e105915
DTITLE=Becky Hobbs - Best of the Beckaroo - Part One
DYEAR=2006
DGENRE=Country
TTITLE0=Jones on the Jukebox
TTITLE1=Are there any more like you
TTITLE2=Cowgirls Heart
TTITLE3=She Broke Her Promise
TTITLE4=Mama was a Working Man
TTITLE5=They always look better when theyre leavin
TTITLE6=Angels Among Us
TTITLE7=The Boots I Came To Town In
TTITLE8=Mamas Green Eyes
TTITLE9=Pale Moon
TTITLE10=I Dont Dance with Strangers
TTITLE11=Talk Back Trembling Lips
TTITLE12=Dont Cry for Me
TTITLE13=Honky Tonk Saturday Night
TTITLE14=Yellow Pages Under Blue
TTITLE15=Country Girls
TTITLE16=The Devil May Care
TTITLE17=I Cant Say Goodbye to You
TTITLE18=Oklahoma Heart
TTITLE19=Pardon Me
TTITLE20=Hottest Ex in Texas
EXTD=YEAR: 2006
EXTT0=
EXTT1=
EXTT2=
EXTT3=
EXTT4=
EXTT5=
EXTT6=
EXTT7=
EXTT8=
EXTT9=
EXTT10=
EXTT11=
EXTT12=
EXTT13=
EXTT14=
EXTT15=
EXTT16=
EXTT17=
EXTT18=
EXTT19=
EXTT20=
PLAYORDER=
